<svg id="Logo" xmlns="http://www.w3.org/2000/svg" viewBox="0 0 134.55 32.52"><defs><style>.cls-1{fill:#fff;}.cls-2{fill:none;stroke:#fff;stroke-miterlimit:10;stroke-width:3px;}</style></defs><g id="logo-2" data-name="logo"><g id="edwon"><path class="cls-1" d="M135.24,4.41h-2.39V22.77a37.77,37.77,0,0,0-4.68-9.06c-4-5.69-9-9.22-13.06-9.22V6.87A9.7,9.7,0,0,1,120.35,9a25.67,25.67,0,0,1,5.87,6.11,38.81,38.81,0,0,1,6.62,21.53h2.4Z" transform="translate(-0.69 -4.23)"/><polygon class="cls-1" points="114.42 32.38 116.79 32.38 116.79 32.37 116.8 32.37 116.8 2.2 114.43 1.16 114.43 28.68 114.42 32.38"/><path class="cls-1" d="M41.79,4.54a53.45,53.45,0,0,0,2.53,16.79C48.6,33.48,56,36.71,56,36.71l2.54-10.64,2.58,10.61s7.54-2.21,12.2-16.49A48.68,48.68,0,0,0,75.47,4.54l-2.53,0a47,47,0,0,1-2.38,16c-3,9.18-7.86,12.45-7.86,12.45l-4.08-17L54.55,32.81a30.84,30.84,0,0,1-8.1-13A45.13,45.13,0,0,1,44.27,4.59Z" transform="translate(-0.69 -4.23)"/><polygon class="cls-1" points="21.71 30.76 24.09 30.76 24.09 30.75 24.1 30.75 24.1 1.71 21.72 1.71 21.72 28.1 21.71 30.76"/><path class="cls-1" d="M38.42,20.59a16.1,16.1,0,0,0-16-16.1V6.87a13.87,13.87,0,0,1,0,27.74v2.07a16.1,16.1,0,0,0,16-16.09" transform="translate(-0.69 -4.23)"/><path class="cls-1" d="M16.78,6.87h.08V4.49h-.08a16.1,16.1,0,0,0,0,32.2h.08V34.61h-.08A13.86,13.86,0,0,1,3,21.68H16.79V19.47H3A13.89,13.89,0,0,1,16.78,6.87" transform="translate(-0.69 -4.23)"/></g><circle id="circle" class="cls-2" cx="94.1" cy="16.26" r="14.76"/></g></svg>